<svg width="280" height="280" viewBox="0 0 280 280" fill="none" xmlns="http://www.w3.org/2000/svg">
<path d="M260.322 166.841C252.073 188.922 235.228 212.822 211.523 219.901C175.683 230.597 171.427 259.465 107.274 256.788C97.9026 256.44 88.597 255.077 79.52 252.722C75.0855 251.552 70.7293 250.102 66.4776 248.382C29.008 233.201 9.45841 199.791 7.84001 164.836C5.70081 118.854 37.7776 96.9416 58.6264 84.112C79.4752 71.2824 104.602 21.5544 167.686 23.6936C177.32 23.9826 186.888 25.3806 196.202 27.86C217.431 33.6056 239.008 46.34 251.552 64.8872C252.493 66.2797 253.393 67.7059 254.251 69.1656C271.04 97.6416 271.561 136.735 260.322 166.841Z" fill="#92E3A9"/>
<path opacity="0.7" d="M260.322 166.841C252.073 188.922 235.228 212.822 211.523 219.901C175.683 230.597 171.427 259.465 107.274 256.788C97.9026 256.44 88.597 255.077 79.52 252.722C75.0855 251.552 70.7293 250.102 66.4776 248.382C29.008 233.201 9.45841 199.791 7.84001 164.836C5.70081 118.854 37.7776 96.9416 58.6264 84.112C79.4752 71.2824 104.602 21.5544 167.686 23.6936C177.32 23.9826 186.888 25.3806 196.202 27.86C217.431 33.6056 239.008 46.34 251.552 64.8872C252.493 66.2797 253.393 67.7059 254.251 69.1656C271.04 97.6416 271.561 136.735 260.322 166.841Z" fill="white"/>
<g opacity="0.2">
<path d="M112.829 23.52H50.96V197.602H112.829V23.52Z" stroke="black" stroke-miterlimit="10" stroke-linecap="round"/>
<path d="M51.2904 28.812H112.706L111.261 24.0296" stroke="black" stroke-miterlimit="10" stroke-linecap="round"/>
<path d="M51.2904 34.608H112.706L111.261 29.8256" stroke="black" stroke-miterlimit="10" stroke-linecap="round"/>
<path d="M51.2904 40.404H112.706L111.261 35.616" stroke="black" stroke-miterlimit="10" stroke-linecap="round"/>
<path d="M51.2904 46.2H112.706L111.261 41.412" stroke="black" stroke-miterlimit="10" stroke-linecap="round"/>
<path d="M51.2904 51.996H112.706L111.261 47.208" stroke="black" stroke-miterlimit="10" stroke-linecap="round"/>
<path d="M51.2904 57.792H112.706L111.261 53.004" stroke="black" stroke-miterlimit="10" stroke-linecap="round"/>
<path d="M51.2904 63.588H112.706L111.261 58.8" stroke="black" stroke-miterlimit="10" stroke-linecap="round"/>
<path d="M51.2904 69.384H112.706L111.261 64.596" stroke="black" stroke-miterlimit="10" stroke-linecap="round"/>
<path d="M51.2904 75.18H112.706L111.261 70.392" stroke="black" stroke-miterlimit="10" stroke-linecap="round"/>
<path d="M51.2904 80.976H112.706L111.261 76.188" stroke="black" stroke-miterlimit="10" stroke-linecap="round"/>
<path d="M51.2904 86.772H112.706L111.261 81.984" stroke="black" stroke-miterlimit="10" stroke-linecap="round"/>
<path d="M51.2904 92.568H112.706L111.261 87.78" stroke="black" stroke-miterlimit="10" stroke-linecap="round"/>
<path d="M51.2904 98.364H112.706L111.261 93.576" stroke="black" stroke-miterlimit="10" stroke-linecap="round"/>
<path d="M51.2904 104.16H112.706L111.261 99.372" stroke="black" stroke-miterlimit="10" stroke-linecap="round"/>
<path d="M51.2904 109.95H112.706L111.261 105.168" stroke="black" stroke-miterlimit="10" stroke-linecap="round"/>
<path d="M51.2904 115.746H112.706L111.261 110.964" stroke="black" stroke-miterlimit="10" stroke-linecap="round"/>
<path d="M51.2904 121.542H112.706L111.261 116.76" stroke="black" stroke-miterlimit="10" stroke-linecap="round"/>
<path d="M51.2904 127.338H112.706L111.261 122.556" stroke="black" stroke-miterlimit="10" stroke-linecap="round"/>
<path d="M51.2904 133.134H112.706L111.261 128.352" stroke="black" stroke-miterlimit="10" stroke-linecap="round"/>
<path d="M51.2904 138.93H112.706L111.261 134.148" stroke="black" stroke-miterlimit="10" stroke-linecap="round"/>
<path d="M51.2904 144.726H112.706L111.261 139.944" stroke="black" stroke-miterlimit="10" stroke-linecap="round"/>
<path d="M51.2904 150.522H112.706L111.261 145.74" stroke="black" stroke-miterlimit="10" stroke-linecap="round"/>
<path d="M51.2904 156.318H112.706L111.261 151.53" stroke="black" stroke-miterlimit="10" stroke-linecap="round"/>
<path d="M51.2904 162.114H112.706L111.261 157.326" stroke="black" stroke-miterlimit="10" stroke-linecap="round"/>
<path d="M51.2904 167.91H112.706L111.261 163.122" stroke="black" stroke-miterlimit="10" stroke-linecap="round"/>
<path d="M51.2904 173.706H112.706L111.261 168.918" stroke="black" stroke-miterlimit="10" stroke-linecap="round"/>
<path d="M51.2904 179.502H112.706L111.261 174.714" stroke="black" stroke-miterlimit="10" stroke-linecap="round"/>
<path d="M51.2904 185.298H112.706L111.261 180.51" stroke="black" stroke-miterlimit="10" stroke-linecap="round"/>
<path d="M51.2904 191.094H112.706L111.261 186.306" stroke="black" stroke-miterlimit="10" stroke-linecap="round"/>
</g>
<g opacity="0.2">
<path d="M179.357 23.52H117.488V197.602H179.357V23.52Z" stroke="black" stroke-miterlimit="10" stroke-linecap="round"/>
<path d="M117.818 28.812H179.234L177.794 24.0296" stroke="black" stroke-miterlimit="10" stroke-linecap="round"/>
<path d="M117.818 34.608H179.234L177.794 29.8256" stroke="black" stroke-miterlimit="10" stroke-linecap="round"/>
<path d="M117.818 40.404H179.234L177.794 35.616" stroke="black" stroke-miterlimit="10" stroke-linecap="round"/>
<path d="M117.818 46.2H179.234L177.794 41.412" stroke="black" stroke-miterlimit="10" stroke-linecap="round"/>
<path d="M117.818 51.996H179.234L177.794 47.208" stroke="black" stroke-miterlimit="10" stroke-linecap="round"/>
<path d="M117.818 57.792H179.234L177.794 53.004" stroke="black" stroke-miterlimit="10" stroke-linecap="round"/>
<path d="M117.818 63.588H179.234L177.794 58.8" stroke="black" stroke-miterlimit="10" stroke-linecap="round"/>
<path d="M117.818 69.384H179.234L177.794 64.596" stroke="black" stroke-miterlimit="10" stroke-linecap="round"/>
<path d="M117.818 75.18H179.234L177.794 70.392" stroke="black" stroke-miterlimit="10" stroke-linecap="round"/>
<path d="M117.818 80.976H179.234L177.794 76.188" stroke="black" stroke-miterlimit="10" stroke-linecap="round"/>
<path d="M117.818 86.772H179.234L177.794 81.984" stroke="black" stroke-miterlimit="10" stroke-linecap="round"/>
<path d="M117.818 92.568H179.234L177.794 87.78" stroke="black" stroke-miterlimit="10" stroke-linecap="round"/>
<path d="M117.818 98.364H179.234L177.794 93.576" stroke="black" stroke-miterlimit="10" stroke-linecap="round"/>
<path d="M117.818 104.16H179.234L177.794 99.372" stroke="black" stroke-miterlimit="10" stroke-linecap="round"/>
<path d="M117.818 109.95H179.234L177.794 105.168" stroke="black" stroke-miterlimit="10" stroke-linecap="round"/>
<path d="M117.818 115.746H179.234L177.794 110.964" stroke="black" stroke-miterlimit="10" stroke-linecap="round"/>
<path d="M117.818 121.542H179.234L177.794 116.76" stroke="black" stroke-miterlimit="10" stroke-linecap="round"/>
<path d="M117.818 127.338H179.234L177.794 122.556" stroke="black" stroke-miterlimit="10" stroke-linecap="round"/>
<path d="M117.818 133.134H179.234L177.794 128.352" stroke="black" stroke-miterlimit="10" stroke-linecap="round"/>
<path d="M117.818 138.93H179.234L177.794 134.148" stroke="black" stroke-miterlimit="10" stroke-linecap="round"/>
<path d="M117.818 144.726H179.234L177.794 139.944" stroke="black" stroke-miterlimit="10" stroke-linecap="round"/>
<path d="M117.818 150.522H179.234L177.794 145.74" stroke="black" stroke-miterlimit="10" stroke-linecap="round"/>
<path d="M117.818 156.318H179.234L177.794 151.53" stroke="black" stroke-miterlimit="10" stroke-linecap="round"/>
<path d="M117.818 162.114H179.234L177.794 157.326" stroke="black" stroke-miterlimit="10" stroke-linecap="round"/>
<path d="M117.818 167.91H179.234L177.794 163.122" stroke="black" stroke-miterlimit="10" stroke-linecap="round"/>
<path d="M117.818 173.706H179.234L177.794 168.918" stroke="black" stroke-miterlimit="10" stroke-linecap="round"/>
<path d="M117.818 179.502H179.234L177.794 174.714" stroke="black" stroke-miterlimit="10" stroke-linecap="round"/>
<path d="M117.818 185.298H179.234L177.794 180.51" stroke="black" stroke-miterlimit="10" stroke-linecap="round"/>
<path d="M117.818 191.094H179.234L177.794 186.306" stroke="black" stroke-miterlimit="10" stroke-linecap="round"/>
</g>
<g opacity="0.3">
<path d="M23.3352 34.5352H13.2552V44.6152H23.3352V34.5352Z" stroke="black" stroke-miterlimit="10" stroke-linecap="round"/>
<path d="M23.3352 51.7048H13.2552V61.7848H23.3352V51.7048Z" stroke="black" stroke-miterlimit="10" stroke-linecap="round"/>
<path d="M27.0648 39.76H42.3752" stroke="black" stroke-miterlimit="10" stroke-linecap="round"/>
<path d="M27.0648 56.56H42.3752" stroke="black" stroke-miterlimit="10" stroke-linecap="round"/>
<path d="M15.4952 37.52L16.9848 40.5048L23.7048 30.4248" stroke="black" stroke-miterlimit="10" stroke-linecap="round"/>
</g>
<g opacity="0.3">
<path d="M172.295 235.575H162.215V245.655H172.295V235.575Z" stroke="black" stroke-miterlimit="10" stroke-linecap="round"/>
<path d="M172.295 252.745H162.215V262.825H172.295V252.745Z" stroke="black" stroke-miterlimit="10" stroke-linecap="round"/>
<path d="M176.025 240.8H191.335" stroke="black" stroke-miterlimit="10" stroke-linecap="round"/>
<path d="M176.025 257.6H191.335" stroke="black" stroke-miterlimit="10" stroke-linecap="round"/>
<path d="M164.455 238.56L165.945 241.545L172.665 231.465" stroke="black" stroke-miterlimit="10" stroke-linecap="round"/>
</g>
<g opacity="0.3">
<path d="M206.08 29.12H196V39.2H206.08V29.12Z" stroke="black" stroke-miterlimit="10" stroke-linecap="round"/>
<path d="M206.08 46.2952H196V56.3752H206.08V46.2952Z" stroke="black" stroke-miterlimit="10" stroke-linecap="round"/>
<path d="M209.815 34.3448H225.12" stroke="black" stroke-miterlimit="10" stroke-linecap="round"/>
<path d="M209.815 51.1448H225.12" stroke="black" stroke-miterlimit="10" stroke-linecap="round"/>
<path d="M198.24 32.1048L199.735 35.0952L206.455 25.0152" stroke="black" stroke-miterlimit="10" stroke-linecap="round"/>
</g>
<path d="M263.491 251.362H271.824" stroke="#263238" stroke-linecap="round" stroke-linejoin="round"/>
<path d="M14 251.362H259.61" stroke="#263238" stroke-linecap="round" stroke-linejoin="round"/>
<path d="M44.5256 213.78C48.1287 213.78 51.0496 206.12 51.0496 196.672C51.0496 187.224 48.1287 179.564 44.5256 179.564C40.9225 179.564 38.0016 187.224 38.0016 196.672C38.0016 206.12 40.9225 213.78 44.5256 213.78Z" fill="#92E3A9" stroke="#263238" stroke-miterlimit="10"/>
<path d="M64.7956 186.135C66.8348 179.718 66.2227 173.796 63.4284 172.908C60.6342 172.02 56.7159 176.502 54.6766 182.919C52.6374 189.336 53.2495 195.257 56.0438 196.145C58.838 197.033 62.7563 192.552 64.7956 186.135Z" fill="#92E3A9" stroke="#263238" stroke-miterlimit="10"/>
<path d="M16.9344 224.818C10.2928 223.698 5.3088 220.438 5.8016 217.538C6.2944 214.637 12.068 213.214 18.6816 214.34C25.2952 215.466 30.3072 218.719 29.82 221.62C29.3328 224.521 23.5704 225.938 16.9344 224.818Z" fill="#92E3A9" stroke="#263238" stroke-miterlimit="10"/>
<path d="M70.9271 209.009C76.4722 203.51 78.9107 196.978 76.3736 194.42C73.8365 191.861 67.2846 194.245 61.7395 199.744C56.1944 205.243 53.756 211.775 56.293 214.333C58.8301 216.891 65.382 214.508 70.9271 209.009Z" fill="#92E3A9" stroke="#263238" stroke-miterlimit="10"/>
<path d="M32.7208 193.917C38.08 201.695 39.6816 209.899 36.2936 212.24C32.9056 214.581 25.8048 210.162 20.4456 202.384C15.0864 194.606 13.4848 186.407 16.8728 184.066C20.2608 181.726 27.3616 186.138 32.7208 193.917Z" fill="#92E3A9" stroke="#263238" stroke-miterlimit="10"/>
<path d="M44.9848 212.923L45.4888 236.443" stroke="#263238" stroke-miterlimit="10" stroke-linecap="round"/>
<path d="M44.3744 190.31L44.9848 212.923" stroke="#263238" stroke-miterlimit="10" stroke-linecap="round"/>
<path d="M44.4192 186.62L44.3744 188.35" stroke="#263238" stroke-miterlimit="10" stroke-linecap="round"/>
<path d="M36.2656 211.12C40.006 218.848 42.1958 227.234 42.7112 235.805" stroke="#263238" stroke-miterlimit="10" stroke-linecap="round"/>
<path d="M25.0656 193.984C29.5423 199.174 33.3087 204.937 36.2656 211.12" stroke="#263238" stroke-miterlimit="10" stroke-linecap="round"/>
<path d="M21.5376 190.254C21.5376 190.254 22.2152 190.87 23.324 192.052" stroke="#263238" stroke-miterlimit="10" stroke-linecap="round"/>
<path d="M56.7056 213.539C52.1295 219.952 48.5638 227.029 46.1328 234.522" stroke="#263238" stroke-miterlimit="10" stroke-linecap="round"/>
<path d="M64.2096 204.915C61.4455 207.55 58.9333 210.437 56.7056 213.539" stroke="#263238" stroke-miterlimit="10" stroke-linecap="round"/>
<path d="M72.24 198.8C70.2013 199.949 68.2871 201.306 66.528 202.849" stroke="#263238" stroke-miterlimit="10" stroke-linecap="round"/>
<path d="M56.4312 194.544C52.8136 205.912 47.964 222.718 45.7016 237.3" stroke="#263238" stroke-miterlimit="10" stroke-linecap="round"/>
<path d="M58.632 187.796C57.988 189.717 57.2376 191.99 56.4312 194.516" stroke="#263238" stroke-miterlimit="10" stroke-linecap="round"/>
<path d="M60.8832 181.272C60.8832 181.272 60.256 183.014 59.2368 185.998" stroke="#263238" stroke-miterlimit="10" stroke-linecap="round"/>
<path d="M29.5064 220.046C34.02 221.754 38.4272 225.058 40.572 231.314" stroke="#263238" stroke-miterlimit="10" stroke-linecap="round"/>
<path d="M21.168 218.35C24.0162 218.486 26.8274 219.053 29.5064 220.03" stroke="#263238" stroke-miterlimit="10" stroke-linecap="round"/>
<path d="M15.764 218.484C15.764 218.484 16.5704 218.366 17.892 218.316" stroke="#263238" stroke-miterlimit="10" stroke-linecap="round"/>
<path d="M73.7464 224.818C80.388 223.698 85.372 220.438 84.8792 217.538C84.3864 214.637 78.6128 213.214 71.9992 214.34C65.3856 215.466 60.3736 218.719 60.8608 221.62C61.348 224.521 67.1104 225.938 73.7464 224.818Z" fill="#92E3A9" stroke="#263238" stroke-miterlimit="10"/>
<path d="M61.32 219.99C56.756 221.67 52.276 224.991 50.12 231.314" stroke="#263238" stroke-miterlimit="10" stroke-linecap="round"/>
<path d="M70.2128 218.316C67.1787 218.406 64.1777 218.973 61.32 219.996" stroke="#263238" stroke-miterlimit="10" stroke-linecap="round"/>
<path d="M74.9168 218.484C74.9168 218.484 74.3904 218.406 73.4776 218.35" stroke="#263238" stroke-miterlimit="10" stroke-linecap="round"/>
<path d="M61.2248 251.3C63.2249 247.1 64.2765 242.512 64.3048 237.86C64.3109 235.068 63.8956 232.291 63.0728 229.622H28.3528C27.53 232.291 27.1147 235.068 27.1208 237.86C27.1483 242.512 28.2019 247.101 30.2064 251.3H61.2248Z" fill="#263238"/>
<path d="M27.44 233.453C27.3392 234.086 27.2664 234.724 27.2104 235.374H64.1984C64.1424 234.724 64.064 234.086 63.9632 233.453H27.44Z" fill="#7A7A7A"/>
<path d="M63.8008 243.286C63.9184 242.648 64.0192 242.01 64.0976 241.366H27.3112C27.384 242.01 27.4848 242.648 27.6024 243.286H63.8008Z" fill="#7A7A7A"/>
<path d="M31.5896 237.944C31.5896 238.241 31.5014 238.531 31.3363 238.778C31.1711 239.025 30.9364 239.218 30.6618 239.331C30.3873 239.445 30.0852 239.474 29.7939 239.416C29.5027 239.357 29.2353 239.214 29.0256 239.003C28.8159 238.793 28.6734 238.525 28.6162 238.233C28.5589 237.942 28.5894 237.64 28.7039 237.366C28.8183 237.092 29.0115 236.858 29.2591 236.693C29.5066 236.529 29.7973 236.442 30.0944 236.443C30.4915 236.445 30.8718 236.603 31.152 236.885C31.4323 237.166 31.5896 237.547 31.5896 237.944Z" fill="#8C8C8C"/>
<path d="M39.0712 237.944C39.0701 238.239 38.9815 238.528 38.8165 238.773C38.6515 239.018 38.4176 239.209 38.1443 239.321C37.871 239.434 37.5706 239.463 37.2809 239.404C36.9912 239.346 36.7253 239.203 36.5168 238.994C36.3082 238.784 36.1664 238.518 36.1091 238.228C36.0519 237.938 36.0818 237.638 36.1952 237.365C36.3085 237.092 36.5001 236.859 36.7459 236.695C36.9917 236.531 37.2805 236.443 37.576 236.443C37.7728 236.443 37.9677 236.482 38.1495 236.558C38.3313 236.633 38.4963 236.744 38.6352 236.883C38.7742 237.023 38.8842 237.188 38.959 237.37C39.0338 237.552 39.0719 237.747 39.0712 237.944Z" fill="#8C8C8C"/>
<path d="M46.5584 237.944C46.5584 238.241 46.4702 238.531 46.3051 238.778C46.1399 239.025 45.9052 239.218 45.6306 239.331C45.3561 239.445 45.054 239.474 44.7627 239.416C44.4715 239.357 44.2041 239.214 43.9944 239.003C43.7847 238.793 43.6422 238.525 43.585 238.233C43.5277 237.942 43.5582 237.64 43.6727 237.366C43.7871 237.092 43.9803 236.858 44.2279 236.693C44.4754 236.529 44.7661 236.442 45.0632 236.443C45.4603 236.445 45.8406 236.603 46.1208 236.885C46.4011 237.166 46.5584 237.547 46.5584 237.944Z" fill="#8C8C8C"/>
<path d="M54.04 237.944C54.0389 238.239 53.9503 238.528 53.7853 238.773C53.6203 239.018 53.3864 239.209 53.1131 239.321C52.8398 239.434 52.5394 239.463 52.2497 239.404C51.96 239.346 51.6941 239.203 51.4856 238.994C51.277 238.784 51.1352 238.518 51.0779 238.228C51.0207 237.938 51.0506 237.638 51.164 237.365C51.2773 237.092 51.4689 236.859 51.7147 236.695C51.9605 236.531 52.2493 236.443 52.5448 236.443C52.7416 236.443 52.9365 236.482 53.1183 236.558C53.3001 236.633 53.4651 236.744 53.6041 236.883C53.743 237.023 53.853 237.188 53.9278 237.37C54.0026 237.552 54.0407 237.747 54.04 237.944Z" fill="#8C8C8C"/>
<path d="M61.5272 237.944C61.5272 238.241 61.439 238.531 61.2739 238.778C61.1087 239.025 60.874 239.218 60.5994 239.331C60.3249 239.445 60.0228 239.474 59.7315 239.416C59.4403 239.357 59.1729 239.214 58.9632 239.003C58.7535 238.793 58.611 238.525 58.5538 238.233C58.4965 237.942 58.527 237.64 58.6415 237.366C58.7559 237.092 58.9491 236.858 59.1967 236.693C59.4442 236.529 59.7349 236.442 60.032 236.443C60.4291 236.445 60.8094 236.603 61.0896 236.885C61.3699 237.166 61.5272 237.547 61.5272 237.944Z" fill="#8C8C8C"/>
<path d="M262.326 47.2976H131.13V232.814H262.326V47.2976Z" fill="#263238"/>
<path d="M259.084 44.0552H127.887V229.572H259.084V44.0552Z" fill="white" stroke="#263238" stroke-linecap="round" stroke-linejoin="round"/>
<path d="M252.644 62.468H133.414V96.0736H252.644V62.468Z" fill="white" stroke="#263238" stroke-linecap="round" stroke-linejoin="round"/>
<path d="M172.542 55.5632H133.414V62.468H172.542V55.5632Z" fill="white" stroke="#263238" stroke-linecap="round" stroke-linejoin="round"/>
<path d="M252.638 55.5632H213.511V62.468H252.638V55.5632Z" fill="white" stroke="#263238" stroke-linecap="round" stroke-linejoin="round"/>
<path d="M133.414 73.5168H252.644" stroke="#263238" stroke-linecap="round" stroke-linejoin="round"/>
<path d="M133.414 84.1064H252.644" stroke="#263238" stroke-linecap="round" stroke-linejoin="round"/>
<path d="M252.644 106.422H133.414V140.028H252.644V106.422Z" fill="white" stroke="#263238" stroke-linecap="round" stroke-linejoin="round"/>
<path d="M133.414 117.471H252.644" stroke="#263238" stroke-linecap="round" stroke-linejoin="round"/>
<path d="M133.414 128.061H252.644" stroke="#263238" stroke-linecap="round" stroke-linejoin="round"/>
<path d="M135.358 65.1672H149.856" stroke="#263238" stroke-linecap="round" stroke-linejoin="round"/>
<path d="M209.3 65.1672H223.798" stroke="#263238" stroke-linecap="round" stroke-linejoin="round"/>
<path d="M135.358 57.3048H149.856" stroke="#263238" stroke-linecap="round" stroke-linejoin="round"/>
<path d="M214.122 57.3048H228.62" stroke="#263238" stroke-linecap="round" stroke-linejoin="round"/>
<path d="M135.358 75.6448H149.856" stroke="#263238" stroke-linecap="round" stroke-linejoin="round"/>
<path d="M135.358 87.1696H149.856" stroke="#263238" stroke-linecap="round" stroke-linejoin="round"/>
<path d="M180.135 87.1696H194.628" stroke="#263238" stroke-linecap="round" stroke-linejoin="round"/>
<path d="M177.8 56.084H206.791" stroke="#263238" stroke-linecap="round" stroke-linejoin="round"/>
<path d="M177.8 59.052H206.791" stroke="#263238" stroke-linecap="round" stroke-linejoin="round"/>
<path d="M174.877 93.436H181.451" stroke="#263238" stroke-linecap="round" stroke-linejoin="round"/>
<path d="M183.092 93.436H189.666" stroke="#263238" stroke-linecap="round" stroke-linejoin="round"/>
<path d="M191.307 93.436H197.882" stroke="#263238" stroke-linecap="round" stroke-linejoin="round"/>
<path d="M252.644 147.09H133.414V180.695H252.644V147.09Z" fill="white" stroke="#263238" stroke-linecap="round" stroke-linejoin="round"/>
<path d="M136.03 155.736C136.03 155.736 138.27 150.192 136.914 151.519C135.559 152.846 134.473 157.511 137.799 156.402C141.126 155.294 143.343 150.41 142.458 152.41C141.574 154.409 142.016 155.954 144.698 154.403C147.381 152.852 147.801 152.852 148.025 153.737C148.249 154.622 148.91 154.403 151.351 153.518C153.793 152.634 153.591 154.185 153.591 154.846C153.591 155.506 156.699 155.294 157.808 154.846C158.917 154.398 159.802 153.076 160.048 154.627C160.294 156.178 162.484 156.178 162.484 156.178H168.47" stroke="#92E3A9" stroke-linecap="round" stroke-linejoin="round"/>
<path d="M133.414 158.138H252.644" stroke="#263238" stroke-linecap="round" stroke-linejoin="round"/>
<path d="M133.414 168.728H252.644" stroke="#263238" stroke-linecap="round" stroke-linejoin="round"/>
<path d="M135.358 149.789H149.856" stroke="#263238" stroke-linecap="round" stroke-linejoin="round"/>
<path d="M209.3 149.789H223.798" stroke="#263238" stroke-linecap="round" stroke-linejoin="round"/>
<path d="M135.358 160.266H149.856" stroke="#263238" stroke-linecap="round" stroke-linejoin="round"/>
<path d="M135.358 171.791H149.856" stroke="#263238" stroke-linecap="round" stroke-linejoin="round"/>
<path d="M180.135 171.791H194.628" stroke="#263238" stroke-linecap="round" stroke-linejoin="round"/>
<path d="M174.877 178.058H181.451" stroke="#263238" stroke-linecap="round" stroke-linejoin="round"/>
<path d="M183.092 178.058H189.666" stroke="#263238" stroke-linecap="round" stroke-linejoin="round"/>
<path d="M191.307 178.058H197.882" stroke="#263238" stroke-linecap="round" stroke-linejoin="round"/>
<path d="M136.265 109.866H170.358" stroke="#263238" stroke-linecap="round" stroke-linejoin="round"/>
<path d="M136.265 120.954H157.214" stroke="#263238" stroke-linecap="round" stroke-linejoin="round"/>
<path d="M189.252 120.954H210.202" stroke="#263238" stroke-linecap="round" stroke-linejoin="round"/>
<path d="M222.118 134.926H243.068" stroke="#263238" stroke-linecap="round" stroke-linejoin="round"/>
<path d="M217.599 120.954H238.549" stroke="#263238" stroke-linecap="round" stroke-linejoin="round"/>
<path d="M218.417 132.457H213.489V137.385H218.417V132.457Z" stroke="#263238" stroke-linecap="round" stroke-linejoin="round"/>
<path d="M188.02 134.926H208.97" stroke="#263238" stroke-linecap="round" stroke-linejoin="round"/>
<path d="M184.324 132.457H179.396V137.385H184.324V132.457Z" stroke="#263238" stroke-linecap="round" stroke-linejoin="round"/>
<path d="M153.927 134.926H174.877" stroke="#263238" stroke-linecap="round" stroke-linejoin="round"/>
<path d="M150.226 132.457H145.298V137.385H150.226V132.457Z" stroke="#263238" stroke-linecap="round" stroke-linejoin="round"/>
<path d="M238.364 187.09H252.101" stroke="#263238" stroke-linecap="round" stroke-linejoin="round"/>
<path d="M183.842 187.09H236.594" stroke="#263238" stroke-linecap="round" stroke-linejoin="round"/>
<path d="M149.856 187.09H182.252" stroke="#263238" stroke-linecap="round" stroke-linejoin="round"/>
<path d="M134.21 187.09H148.613" stroke="#263238" stroke-linecap="round" stroke-linejoin="round"/>
<path d="M222.079 190.277H252.101" stroke="#263238" stroke-linecap="round" stroke-linejoin="round"/>
<path d="M164.724 190.277H220.662" stroke="#263238" stroke-linecap="round" stroke-linejoin="round"/>
<path d="M134.21 190.277H162.954" stroke="#263238" stroke-linecap="round" stroke-linejoin="round"/>
<path d="M229.869 193.463H252.101" stroke="#263238" stroke-linecap="round" stroke-linejoin="round"/>
<path d="M182.073 193.463H228.631" stroke="#263238" stroke-linecap="round" stroke-linejoin="round"/>
<path d="M154.812 193.463H179.592" stroke="#263238" stroke-linecap="round" stroke-linejoin="round"/>
<path d="M134.21 193.463H153.216" stroke="#263238" stroke-linecap="round" stroke-linejoin="round"/>
<path d="M242.082 196.65H252.101" stroke="#263238" stroke-linecap="round" stroke-linejoin="round"/>
<path d="M141.708 196.65H240.313" stroke="#263238" stroke-linecap="round" stroke-linejoin="round"/>
<path d="M134.21 196.65H140.297" stroke="#263238" stroke-linecap="round" stroke-linejoin="round"/>
<path d="M244.384 199.836H252.101" stroke="#263238" stroke-linecap="round" stroke-linejoin="round"/>
<path d="M219.778 199.836H242.794" stroke="#263238" stroke-linecap="round" stroke-linejoin="round"/>
<path d="M182.073 199.836H218.54" stroke="#263238" stroke-linecap="round" stroke-linejoin="round"/>
<path d="M146.843 199.836H180.656" stroke="#263238" stroke-linecap="round" stroke-linejoin="round"/>
<path d="M134.21 199.836H144.894" stroke="#263238" stroke-linecap="round" stroke-linejoin="round"/>
<path d="M238.19 203.022H252.101" stroke="#263238" stroke-linecap="round" stroke-linejoin="round"/>
<path d="M193.581 203.022H236.242" stroke="#263238" stroke-linecap="round" stroke-linejoin="round"/>
<path d="M164.724 203.022H191.279" stroke="#263238" stroke-linecap="round" stroke-linejoin="round"/>
<path d="M134.21 203.022H162.954" stroke="#263238" stroke-linecap="round" stroke-linejoin="round"/>
<path d="M217.829 206.214H252.101" stroke="#263238" stroke-linecap="round" stroke-linejoin="round"/>
<path d="M149.856 206.214H215.354" stroke="#263238" stroke-linecap="round" stroke-linejoin="round"/>
<path d="M134.21 206.214H147.907" stroke="#263238" stroke-linecap="round" stroke-linejoin="round"/>
<path d="M135.442 215.846H150.231" stroke="#263238" stroke-linecap="round" stroke-linejoin="round"/>
<path d="M208.561 215.846H223.35" stroke="#263238" stroke-linecap="round" stroke-linejoin="round"/>
<path d="M153.927 215.846H203.633" stroke="#263238" stroke-linecap="round" stroke-linejoin="round"/>
<path d="M227.455 215.846H251.692" stroke="#263238" stroke-linecap="round" stroke-linejoin="round"/>
<path d="M137.29 116.094C137.29 116.094 139.574 116.62 140.09 113.982C140.605 111.345 138.505 112.75 138.505 114.156C138.505 115.562 139.21 116.956 141.865 114.862C144.519 112.767 143.797 113.103 145.382 114.682C146.966 116.262 145.555 116.62 148.742 115.388C151.928 114.156 152.102 114.682 151.906 115.741C151.71 116.799 151.026 116.267 154.017 115.214C157.007 114.162 158.413 113.277 158.06 114.654C157.707 116.032 156.475 116.413 158.76 114.834C161.045 113.254 162.456 108.153 160.518 112.034C158.581 115.914 157.881 115.394 160.698 114.834C163.514 114.274 164.388 112.37 164.388 113.775C164.388 115.181 162.103 116.066 164.388 115.186C166.673 114.307 167.552 113.428 167.552 114.307C167.552 115.186 165.441 116.766 168.431 115.36C171.422 113.954 172.301 112.37 172.301 113.602C172.301 114.834 171.769 114.481 172.301 114.834C172.833 115.186 171.769 114.128 173.354 114.654C174.938 115.181 174.233 116.239 176.518 115.36C178.802 114.481 178.629 113.249 179.878 114.481C181.126 115.713 179.878 117.471 183.238 115.886C186.598 114.302 187.454 115.186 188.513 115.36C189.385 115.494 190.268 115.552 191.15 115.534C191.85 115.534 191.677 114.834 193.435 115.534C194.479 116.044 195.634 116.287 196.795 116.239H198.8" stroke="#92E3A9" stroke-linecap="round" stroke-linejoin="round"/>
<path d="M209.541 116.267C210.383 115.903 211.204 115.492 211.999 115.035C213.584 114.156 217.627 111.171 217.801 113.103C217.974 115.035 213.405 117.499 213.937 115.388C214.469 113.277 217.627 114.335 219.912 115.214C222.197 116.094 222.712 115.035 225.54 115.035C228.368 115.035 227.998 115.914 229.404 116.267C230.81 116.62 230.283 116.267 232.764 115.214C235.245 114.162 233.464 109.054 231.885 112.577C230.306 116.099 229.774 117.499 233.464 115.741C237.154 113.982 236.102 116.094 236.628 116.094C237.154 116.094 236.275 116.267 238.386 115.388C240.498 114.509 237.86 115.741 239.445 116.094C241.03 116.446 241.903 114.682 243.309 114.156C244.714 113.63 244.894 115.214 244.894 115.214H246.299" stroke="#92E3A9" stroke-linecap="round" stroke-linejoin="round"/>
<path d="M136.231 82.32C136.231 82.32 137.11 81.9672 138.516 79.8616C139.922 77.756 137.637 77.0616 137.11 79.3352C136.584 81.6088 135.352 84.2576 139.222 82.32C143.091 80.3824 141.68 76.72 140.454 79.52C139.227 82.32 139.574 85.148 143.254 83.0368C146.933 80.9256 147.297 79.6768 147.823 80.752C148.35 81.8272 146.418 82.1576 149.582 82.3312C152.746 82.5048 153.272 81.452 154.678 80.9256C156.083 80.3992 156.789 80.9256 156.789 80.9256C157.188 81.046 157.604 81.1064 158.021 81.1048C158.721 81.1048 159.6 80.5448 159.953 81.1048C160.306 81.6648 156.436 82.3312 161.011 81.6312C165.586 80.9312 166.611 77.9352 166.986 80.2256C167.362 82.516 163.822 84.4424 163.822 82.3312C163.822 80.22 165.934 78.1144 169.271 80.0464C172.609 81.9784 172.435 82.5104 174.194 82.8464C175.952 83.1824 178.763 81.2672 178.763 81.2672C178.763 81.2672 178.59 81.4408 179.642 81.9672C180.695 82.4936 180.348 82.4992 182.28 81.9672C184.212 81.4352 182.633 81.7936 185.27 81.4408C187.908 81.088 189.134 81.2672 188.07 82.1464C187.006 83.0256 184.027 81.7936 187.897 81.0936C191.766 80.3936 192.287 81.62 192.287 82.1464C192.287 82.6728 193.346 82.8464 194.225 82.4992C195.083 82.232 195.967 82.0537 196.862 81.9672" stroke="#92E3A9" stroke-linecap="round" stroke-linejoin="round"/>
<path d="M140.801 71.9656C142.215 71.7305 143.608 71.3841 144.967 70.9296C146.126 70.5208 147.207 69.9832 147.661 69.328C148.887 67.5696 145.197 68.096 142.912 70.3864C140.627 72.6768 144.318 72.8448 149.072 71.2656C153.826 69.6864 153.642 65.6376 150.478 68.628C147.314 71.6184 148.546 72.3184 153.468 71.2656C158.39 70.2128 164.539 68.9752 162.607 70.7056C160.675 72.436 160.149 71.5848 163.486 70.8848C166.824 70.1848 168.935 68.6 168.409 69.8264C167.882 71.0528 166.477 72.6264 169.114 71.4112C171.752 70.196 171.399 71.4112 171.399 71.4112C176.142 70.8848 178.78 64.904 175.442 67.0152C172.105 69.1264 172.082 71.9376 175.09 71.764C178.097 71.5904 180.891 68.7736 179.486 70.1792C178.08 71.5848 175.795 72.6432 180.712 71.4112C185.629 70.1792 187.219 67.5416 186.872 69.3C186.525 71.0584 186.346 70.8848 188.104 70.8848C189.862 70.8848 193.026 68.4208 191.974 70.1792C190.921 71.9376 190.389 72.1112 191.974 71.764C193.558 71.4168 195.838 70.1792 196.543 70.1792C197.249 70.1792 195.138 72.1112 197.243 71.9376C199.349 71.764 203.75 69.1376 203.75 69.1376" stroke="#92E3A9" stroke-linecap="round" stroke-linejoin="round"/>
<path d="M198.8 69.1544C198.8 69.1544 203.196 72.1392 204.249 72.1392" stroke="#92E3A9" stroke-linecap="round" stroke-linejoin="round"/>
<path d="M180.589 133.717L181.11 136.158L186.514 129.713" stroke="#92E3A9" stroke-linecap="round" stroke-linejoin="round"/>
<path d="M120.831 240.072L125.233 244.362C125.233 244.362 135.279 248.086 135.733 248.763C136.186 249.441 135.733 251.362 135.733 251.362H112.594L113.204 242.144L120.831 240.072Z" fill="white" stroke="#263238" stroke-linecap="round" stroke-linejoin="round"/>
<path d="M135.929 249.894H112.694L112.594 251.362H135.733C135.84 250.879 135.906 250.388 135.929 249.894Z" fill="white" stroke="#263238" stroke-linecap="round" stroke-linejoin="round"/>
<path d="M73.2872 166.438L76.4624 203.958C76.4624 203.958 73.92 226.554 73.92 228.794C73.92 231.034 72.8 238.314 72.8 238.314L80.4552 239.249L90.664 200.609L92.1592 184.929L104.664 213.114L113.221 242.155L120.848 240.083L114.934 202.849L103.964 167.754L103.174 163.649L73.304 164.018L73.2872 166.438Z" fill="#263238" stroke="#263238" stroke-linecap="round" stroke-linejoin="round"/>
<path d="M72.8 238.314L70.56 244.429C70.56 244.429 66.388 249.278 66.724 250.186C66.8174 250.443 66.9661 250.676 67.1596 250.87C67.3531 251.064 67.5867 251.212 67.844 251.306H78.2264C78.4888 251.243 78.7262 251.103 78.9072 250.903C79.0882 250.703 79.2042 250.453 79.24 250.186C79.3871 249.365 79.462 248.533 79.464 247.699L80.444 239.249L72.8 238.314Z" fill="white" stroke="#263238" stroke-linecap="round" stroke-linejoin="round"/>
<path d="M79.2344 250.186C79.268 250.04 79.296 249.889 79.3184 249.732H66.7576C66.6948 249.875 66.6772 250.033 66.7072 250.186C66.8006 250.443 66.9493 250.676 67.1428 250.87C67.3363 251.064 67.5699 251.212 67.8272 251.306H78.2096C78.4741 251.245 78.7139 251.106 78.897 250.906C79.0802 250.706 79.1979 250.454 79.2344 250.186Z" fill="white" stroke="#263238" stroke-linecap="round" stroke-linejoin="round"/>
<path d="M83.9272 112.722C83.9272 112.722 74.1272 113.282 71.1872 115.242C68.2472 117.202 53.9672 128.962 53.9672 128.962L54.7008 141.193L70.4872 129.802L72.7272 169.282L103.947 167.742L103.247 145.762L102.827 145.062C102.827 145.062 112.907 155.422 116.687 155.142C120.467 154.862 121.307 148.562 118.507 144.642C115.707 140.722 111.507 135.122 108.567 130.922C105.627 126.722 105.627 120.562 101.287 117.622C96.9472 114.682 89.3872 113.002 89.3872 113.002L83.9272 112.722Z" fill="#92E3A9" stroke="#263238" stroke-linecap="round" stroke-linejoin="round"/>
<path d="M103.247 145.762L102.637 133.123" stroke="#263238" stroke-linecap="round" stroke-linejoin="round"/>
<path d="M104.636 138.158L104.994 135.99" stroke="#263238" stroke-linecap="round" stroke-linejoin="round"/>
<path d="M103.477 145.102L104.378 139.714" stroke="#263238" stroke-linecap="round" stroke-linejoin="round"/>
<path d="M90.4344 153.177L91.84 154.711" stroke="#263238" stroke-linecap="round" stroke-linejoin="round"/>
<path d="M75.3144 136.668L89.5496 152.208" stroke="#263238" stroke-linecap="round" stroke-linejoin="round"/>
<path d="M80.4272 146.782L85.9376 152.186" stroke="#263238" stroke-linecap="round" stroke-linejoin="round"/>
<path d="M77.672 144.088L79.2568 145.639" stroke="#263238" stroke-linecap="round" stroke-linejoin="round"/>
<path d="M75.1464 126.717L70.4872 129.802L74.9784 129.416" stroke="#263238" stroke-linecap="round" stroke-linejoin="round"/>
<path d="M82.9584 101.304C83.268 103.441 83.4364 105.596 83.4624 107.755C83.4398 109.872 83.2714 111.984 82.9584 114.078C82.9584 114.078 89.2808 123.693 90.4176 124.449C91.5544 125.205 92.316 121.918 92.316 120.529C92.316 119.14 92.4448 115.091 92.4448 115.091V110.538L82.9584 101.304Z" fill="#B0B0B0" stroke="#263238" stroke-linecap="round" stroke-linejoin="round"/>
<path d="M92.4 115.713C92.4 115.332 92.4 115.091 92.4 115.091V110.538L90.2496 108.45L85.0024 106.327L92.4 115.713Z" fill="#263238" stroke="#263238" stroke-linecap="round" stroke-linejoin="round"/>
<path d="M98.3864 88.6536C98.3864 88.6536 99.904 93.5872 100.033 95.6088C100.162 97.6304 99.0192 99.1536 99.0192 99.7864C99.0192 100.419 100.789 102.945 100.789 103.835C100.789 104.726 98.6384 105.857 98.6384 105.857C98.6384 105.857 97.7536 110.538 95.48 112.056C93.2064 113.574 88.0152 109.906 85.9936 108.007C84.3029 106.48 83.0747 104.508 82.4488 102.318C81.816 100.29 82.5776 95.5976 83.8432 91.8176C84.3057 90.2494 85.2056 88.8454 86.4374 87.7703C87.6693 86.6952 89.182 85.9934 90.7984 85.7472C93.7048 85.2376 98 86.884 98.3864 88.6536Z" fill="#B0B0B0" stroke="#263238" stroke-linecap="round" stroke-linejoin="round"/>
<path d="M83.44 100.839C83.44 100.839 85.8424 101.22 86.0944 99.9544C86.3464 98.6888 84.8288 98.4368 86.4752 97.3C88.1216 96.1632 89.2752 96.18 89.7624 95.4016C90.2496 94.6232 89.5608 93.4192 90.4456 91.3976C91.3304 89.376 92.3944 89.8968 94.9256 90.2776C96.4053 90.4847 97.8302 90.9793 99.12 91.7336C99.12 91.7336 100.677 88.4408 99.0304 86.5424C97.384 84.644 92.1592 82.7176 86.3408 84.4872C80.5224 86.2568 78.7584 90.468 78.2544 95.0208C77.7504 99.5736 79.52 102.105 81.2 102.609C82.88 103.113 83.44 100.839 83.44 100.839Z" fill="#263238" stroke="#263238" stroke-linecap="round" stroke-linejoin="round"/>
<path d="M84.728 100.542C84.728 100.542 83.2104 95.8664 81.928 98.2688C80.6456 100.671 81.2952 102.693 82.5608 103.454C82.712 103.558 82.8858 103.625 83.0677 103.648C83.2497 103.672 83.4346 103.652 83.6074 103.59C83.7801 103.529 83.9357 103.427 84.0614 103.293C84.1871 103.159 84.2793 102.998 84.3304 102.822" fill="#B0B0B0"/>
<path d="M84.728 100.542C84.728 100.542 83.2104 95.8664 81.928 98.2688C80.6456 100.671 81.2952 102.693 82.5608 103.454C82.712 103.558 82.8858 103.625 83.0677 103.648C83.2497 103.672 83.4346 103.652 83.6074 103.59C83.7801 103.529 83.9357 103.427 84.0614 103.293C84.1871 103.159 84.2793 102.998 84.3304 102.822" stroke="#263238" stroke-linecap="round" stroke-linejoin="round"/>
<path d="M112.683 148.445C114.296 145.482 121.436 136.763 121.436 136.763L126.09 139.003C126.09 139.003 122.567 151.838 120.876 153.67C119.185 155.501 117.326 156.122 115.349 154.711" fill="#B0B0B0"/>
<path d="M112.683 148.445C114.296 145.482 121.436 136.763 121.436 136.763L126.09 139.003C126.09 139.003 122.567 151.838 120.876 153.67C119.185 155.501 117.326 156.122 115.349 154.711" stroke="#263238" stroke-linecap="round" stroke-linejoin="round"/>
<path d="M115.45 154.627C116.349 155.121 117.392 155.288 118.4 155.098C119.408 154.908 120.319 154.373 120.977 153.586C121.486 153.026 122.164 151.474 122.858 149.576C121.232 149.93 119.534 149.717 118.046 148.971C116.559 148.225 115.371 146.992 114.682 145.477C113.841 146.549 113.114 147.707 112.515 148.932C112.459 149.106 112.924 151.25 112.896 151.407" fill="#92E3A9"/>
<path d="M115.45 154.627C116.349 155.121 117.392 155.288 118.4 155.098C119.408 154.908 120.319 154.373 120.977 153.586C121.486 153.026 122.164 151.474 122.858 149.576C121.232 149.93 119.534 149.717 118.046 148.971C116.559 148.225 115.371 146.992 114.682 145.477C113.841 146.549 113.114 147.707 112.515 148.932C112.459 149.106 112.924 151.25 112.896 151.407" stroke="#263238" stroke-linecap="round" stroke-linejoin="round"/>
<path d="M168.403 156.358C168.294 156.359 168.185 156.338 168.084 156.296L162.109 153.815C162.005 153.775 161.909 153.714 161.829 153.636C161.749 153.558 161.685 153.465 161.641 153.362C161.597 153.259 161.574 153.148 161.573 153.036C161.573 152.924 161.595 152.814 161.637 152.71C161.68 152.607 161.744 152.513 161.823 152.435C161.903 152.356 161.997 152.294 162.101 152.252C162.205 152.211 162.316 152.19 162.428 152.192C162.54 152.194 162.65 152.219 162.753 152.264L168.728 154.745C168.906 154.821 169.052 154.955 169.142 155.126C169.232 155.297 169.26 155.494 169.222 155.683C169.184 155.873 169.082 156.043 168.933 156.166C168.783 156.289 168.596 156.357 168.403 156.358Z" fill="white" stroke="#263238" stroke-linecap="round" stroke-linejoin="round"/>
<path d="M149.75 152.012L16.94 92.4C15.924 91.9426 15.131 91.1007 14.7352 90.0591C14.3394 89.0176 14.373 87.8615 14.8288 86.8448C15.2851 85.8292 16.1259 85.0363 17.1666 84.6404C18.2072 84.2445 19.3625 84.278 20.3784 84.7336L153.188 144.346L149.75 152.012Z" fill="white" stroke="#263238" stroke-linecap="round" stroke-linejoin="round"/>
<path d="M34.9664 91.28L20.4064 84.7336C19.3898 84.2739 18.2322 84.2369 17.1883 84.6308C16.1444 85.0246 15.2997 85.817 14.84 86.8336C14.3803 87.8502 14.3433 89.0078 14.7372 90.0517C15.131 91.0956 15.9234 91.9403 16.94 92.4L31.164 98.8288L34.9664 91.28Z" fill="white" stroke="#263238" stroke-linecap="round" stroke-linejoin="round"/>
<path d="M153.188 144.346L166.482 153.451L165.654 155.221L149.75 152.012L153.188 144.346Z" fill="white" stroke="#263238" stroke-linecap="round" stroke-linejoin="round"/>
<path d="M31.4384 89.7064L20.3784 84.7448C19.3729 84.3451 18.2519 84.3489 17.2491 84.7554C16.2463 85.162 15.4391 85.9398 14.9957 86.9269C14.5524 87.914 14.5071 89.0341 14.8693 90.0537C15.2315 91.0733 15.9733 91.9138 16.94 92.4L27.5352 97.1544L31.4384 89.7064Z" fill="#92E3A9" stroke="#263238" stroke-linecap="round" stroke-linejoin="round"/>
<path d="M44.8672 98.4424C44.8672 98.4424 43.7472 104.462 44.5872 105.582C45.4272 106.702 50.0472 110.902 50.0472 110.902C50.0472 110.902 48.2272 135.402 48.6472 137.642C49.0672 139.882 53.8272 141.562 55.3672 141.142C56.9072 140.722 58.0272 139.042 59.4272 135.962C60.8272 132.882 54.5272 111.322 54.5272 110.342C54.5272 109.362 51.5872 101.802 51.5872 101.802C51.5872 101.802 53.9672 100.122 54.3872 99.5624C54.8072 99.0024 52.7072 99.4224 52.2872 99.4224C50.9116 99.2635 49.5529 98.9824 48.2272 98.5824C47.6672 98.3024 44.8672 98.4424 44.8672 98.4424Z" fill="#B0B0B0" stroke="#263238" stroke-linecap="round" stroke-linejoin="round"/>
<path d="M51.6432 99.3888C51.6432 99.3888 49.6608 99.8872 49.7336 100.38C49.8064 100.873 49.8064 103.992 49.8064 103.992" fill="white"/>
<path d="M51.6432 99.3888C51.6432 99.3888 49.6608 99.8872 49.7336 100.38C49.8064 100.873 49.8064 103.992 49.8064 103.992" stroke="#263238" stroke-linecap="round" stroke-linejoin="round"/>
<path d="M48.6024 98.896C48.6024 98.896 46.9224 98.8232 46.9224 99.7472V103.639" fill="white"/>
<path d="M48.6024 98.896C48.6024 98.896 46.9224 98.8232 46.9224 99.7472V103.639" stroke="#263238" stroke-linecap="round" stroke-linejoin="round"/>
<path d="M44.8448 98.8232L45.1304 103.639" stroke="#263238" stroke-linecap="round" stroke-linejoin="round"/>
<path d="M55.3672 141.12C56.9072 140.7 58.0272 139.02 59.4272 135.94C59.9592 134.781 59.388 130.99 58.4808 126.666C57.0935 127.6 55.5033 128.188 53.8425 128.383C52.1818 128.578 50.4985 128.373 48.9328 127.786C48.6584 132.597 48.4848 136.78 48.6472 137.648C49.0672 139.882 53.8272 141.562 55.3672 141.12Z" fill="#92E3A9" stroke="#263238" stroke-linecap="round" stroke-linejoin="round"/>
<path d="M121.386 130.054C121.966 129.565 122.705 129.306 123.463 129.326C124.583 129.433 124.813 131.096 124.706 132.546C124.6 133.997 123.026 134.316 122.836 133.381C122.646 132.446 122.422 130.99 122.422 130.99L121.386 130.054Z" fill="#B0B0B0" stroke="#263238" stroke-linecap="round" stroke-linejoin="round"/>
<path d="M124.499 129.954C124.886 129.841 125.301 129.873 125.665 130.046C126.03 130.218 126.318 130.518 126.476 130.889C127.098 132.238 126.37 134.002 125.642 134.109C124.914 134.215 124.706 132.546 124.706 132.546L124.499 129.954Z" fill="#B0B0B0" stroke="#263238" stroke-linecap="round" stroke-linejoin="round"/>
<path d="M126.476 130.889C126.616 130.817 126.772 130.78 126.929 130.779C127.087 130.778 127.242 130.814 127.383 130.885C127.524 130.955 127.647 131.057 127.741 131.183C127.836 131.31 127.899 131.456 127.926 131.611C128.346 132.86 128.761 134.411 127.826 134.411C126.89 134.411 126.577 132.731 126.577 132.731L126.476 130.889Z" fill="#B0B0B0" stroke="#263238" stroke-linecap="round" stroke-linejoin="round"/>
<path d="M127.926 131.6C127.926 131.6 129.282 131.499 129.606 132.328C129.931 133.157 130.542 134.719 129.399 134.719C129.091 134.719 128.363 133.263 128.363 133.263L127.926 131.6Z" fill="#B0B0B0" stroke="#263238" stroke-linecap="round" stroke-linejoin="round"/>
</svg>
